<svg width="32" height="32" viewBox="0 0 32 32" fill="none" xmlns="http://www.w3.org/2000/svg">
  <rect width="32" height="32" rx="8" fill="#0f0f23"/>
  <!-- Veil/Vesting concept with layered elements -->
  <rect x="6" y="8" width="20" height="16" rx="2" fill="#6366f1" opacity="0.2"/>
  <rect x="8" y="10" width="16" height="12" rx="1" fill="#6366f1" opacity="0.4"/>
  <rect x="10" y="12" width="12" height="8" rx="1" fill="#6366f1" opacity="0.6"/>
  <rect x="12" y="14" width="8" height="4" rx="1" fill="#6366f1"/>
  <!-- Lock icon for security -->
  <path d="M20 6h-2V4a2 2 0 0 0-4 0v2h-2a2 2 0 0 0-2 2v6a2 2 0 0 0 2 2h8a2 2 0 0 0 2-2V8a2 2 0 0 0-2-2z" fill="#10b981"/>
  <path d="M16 10a1 1 0 1 0 0 2 1 1 0 0 0 0-2z" fill="#0f0f23"/>
  <!-- Privacy dots -->
  <circle cx="24" cy="8" r="1.5" fill="#10b981"/>
  <circle cx="26" cy="10" r="1" fill="#10b981" opacity="0.7"/>
  <circle cx="25" cy="12" r="0.8" fill="#10b981" opacity="0.5"/>
</svg>
